#N canvas 242 200 1264 492 12;
#X declare -lib sms;
#X obj 10 7 declare -lib sms;
#X obj 12 177 nbx 5 18 -1e+37 1e+37 0 0 empty empty empty 0 -10 0 12 #fcfcfc #000000 #000000 0 256;
#X obj 236 92 smssynth~ neimog;
#X msg 236 8 buffer;
#X obj 236 149 dac~;
#X obj 295 8 hsl 170 20 1 805 0 0 empty empty empty -2 -10 0 12 #fcfcfc #000000 #000000 0 1;
#X obj 292 49 nbx 5 18 -1e+37 1e+37 0 0 empty empty empty 0 -10 0 12 #fcfcfc #000000 #000000 0 256;
#X obj 135 7 smsbuf neimog;
#X obj 12 147 smsanal neimog;
#X msg 55 87 buffer neimog;
#X msg 12 50 soundfile Fl-ord-A4-mf.aif;
#X obj 400 72 loadbang;
#X obj 117 491 delay 1000 1 msec;
#X obj 400 97 delay 1000 1 msec;
#X msg 400 122 \; pd quit;
#X connect 2 0 4 0;
#X connect 2 0 4 1;
#X connect 3 0 2 0;
#X connect 5 0 2 0;
#X connect 5 0 6 0;
#X connect 8 0 1 0;
#X connect 9 0 8 0;
#X connect 10 0 8 0;
#X connect 11 0 13 0;
#X connect 13 0 14 0;
