#N canvas 526 153 1041 492 12;
#X declare -lib sms;
#X obj 10 7 declare -lib sms;
#X msg 12 50 soundfile Bird.wav;
#X obj 12 177 nbx 5 18 -1e+037 1e+037 0 0 empty empty empty 0 -10 0
12 -262144 -1 -1 0 256;
#X obj 236 92 smssynth~ neimog;
#X msg 236 8 buffer;
#X obj 236 149 dac~;
#X obj 295 8 hsl 170 20 1 805 0 0 empty empty empty -2 -10 0 12 -262144
-1 -1 0 1;
#X obj 292 49 nbx 5 18 -1e+037 1e+037 0 0 empty empty empty 0 -10 0
12 -262144 -1 -1 0 256;
#X obj 135 7 smsbuf neimog;
#X obj 12 147 smsanal neimog;
#X msg 55 87 buffer neimog;
#X connect 1 0 9 0;
#X connect 3 0 5 0;
#X connect 3 0 5 1;
#X connect 4 0 3 0;
#X connect 6 0 3 0;
#X connect 6 0 7 0;
#X connect 9 0 2 0;
#X connect 10 0 9 0;
