#N canvas 526 153 1041 492 12;
#X declare -lib sms;
#X obj 10 7 declare -lib sms;
#X obj 101 114 smsbuf neimog;
#X obj 12 84 smsanal neimog;
#X msg 12 50 soundfile Bird.wav;
#X obj 12 114 nbx 5 18 -1e+37 1e+37 0 0 empty empty empty 0 -10 0 12 #fcfcfc #000000 #000000 0 256;
#X obj 276 130 smssynth~ neimog;
#X msg 276 46 buffer;
#X obj 276 187 dac~;
#X obj 335 46 hsl 170 20 1 805 0 0 empty empty empty -2 -10 0 12 #fcfcfc #000000 #000000 0 1;
#X obj 332 87 nbx 5 18 -1e+37 1e+37 0 0 empty empty empty 0 -10 0 12 #fcfcfc #000000 #000000 0 256;
#X connect 2 0 4 0;
#X connect 3 0 2 0;
#X connect 5 0 7 0;
#X connect 5 0 7 1;
#X connect 6 0 5 0;
#X connect 8 0 5 0;
#X connect 8 0 9 0;
